<?xml version="1.0" standalone="no"?>
<!DOCTYPE svg PUBLIC "-//W3C//DTD SVG 20010904//EN"
 "http://www.w3.org/TR/2001/REC-SVG-20010904/DTD/svg10.dtd">
<svg version="1.0" xmlns="http://www.w3.org/2000/svg"
 width="500.000000pt" height="500.000000pt" viewBox="0 0 500.000000 500.000000"
 preserveAspectRatio="xMidYMid meet">
<metadata>
Created by potrace 1.11, written by Peter Selinger 2001-2013
</metadata>
<g transform="translate(0.000000,500.000000) scale(0.100000,-0.100000)"
fill="#000000" stroke="none">
<path d="M2634 4638 c-3 -4 -18 -6 -35 -4 -25 3 -28 1 -17 -12 11 -13 10 -14
-10 -8 -12 4 -22 3 -22 -2 0 -8 -22 -18 -45 -21 -3 0 -16 -12 -30 -26 -13 -15
-25 -25 -27 -23 -6 5 -78 -78 -78 -90 0 -6 -8 -16 -17 -21 -10 -6 -15 -11 -10
-11 4 0 0 -15 -10 -32 -9 -18 -18 -35 -18 -38 -10 -41 -19 -60 -27 -60 -5 0
-6 -4 -3 -10 3 -5 1 -18 -4 -28 -7 -13 -6 -23 2 -32 9 -10 9 -11 0 -6 -8 4
-13 1 -13 -8 0 -22 -13 -20 -30 3 -7 11 -17 18 -22 15 -4 -3 -8 4 -8 15 0 11
-4 22 -9 26 -5 3 -9 28 -8 55 1 28 -2 50 -6 50 -4 0 -3 9 3 19 13 25 13 34 0
26 -5 -3 -10 -1 -10 4 0 6 4 11 9 11 5 0 8 14 7 30 -1 18 2 29 8 27 7 -3 11
15 11 48 0 30 3 51 7 49 5 -3 8 7 8 22 l0 27 -25 -23 c-14 -13 -25 -29 -25
-36 0 -7 -9 -18 -20 -24 -11 -6 -18 -15 -15 -21 4 -5 2 -9 -4 -9 -6 0 -13 -11
-17 -25 -3 -14 -10 -25 -15 -25 -5 0 -9 -5 -9 -11 0 -5 6 -7 13 -4 6 4 4 0 -5
-8 -10 -8 -15 -16 -13 -19 3 -3 0 -18 -6 -34 -7 -16 -13 -36 -15 -44 -5 -29
-16 -115 -17 -132 -1 -10 -4 -18 -7 -18 -4 0 -6 -10 -5 -22 1 -13 -3 -29 -9
-37 -8 -11 -8 -13 2 -7 8 5 12 0 12 -13 0 -12 -4 -21 -9 -21 -10 0 -7 -38 4
-48 2 -3 0 -11 -6 -19 -6 -7 -7 -13 -2 -13 5 0 10 -7 10 -15 0 -8 -5 -15 -10
-15 -5 0 -4 -7 3 -15 7 -8 9 -15 5 -15 -4 0 -2 -7 5 -15 10 -12 10 -15 0 -15
-10 0 -9 -4 1 -16 7 -9 14 -25 16 -35 6 -36 12 -64 13 -64 1 0 4 -19 5 -43 2
-24 6 -50 9 -58 3 -9 1 -12 -4 -9 -6 3 -10 1 -10 -4 0 -6 5 -11 11 -11 5 0 8
-4 5 -8 -4 -8 -6 -102 -4 -194 1 -24 6 -38 14 -38 8 0 11 -6 8 -15 -4 -8 -1
-15 5 -15 6 0 11 -7 11 -15 0 -8 4 -15 10 -15 5 0 9 -4 7 -8 -1 -5 13 -23 31
-41 17 -18 32 -37 32 -42 0 -5 9 -9 20 -9 21 0 23 21 6 49 -7 10 -6 12 4 6 10
-6 12 -3 8 13 -4 12 -2 22 3 22 4 0 6 7 3 15 -4 8 -1 15 5 15 6 0 11 9 11 19
0 11 6 22 13 24 9 4 9 6 0 6 -7 1 -10 8 -7 16 4 8 10 13 14 10 4 -2 7 5 6 18
-1 13 4 21 11 20 7 -2 12 0 11 5 -4 11 28 53 35 45 4 -3 7 1 7 10 0 10 6 14
14 11 7 -3 16 2 20 11 3 9 10 13 16 10 5 -3 10 -1 10 4 0 6 7 11 15 11 8 0 15
5 15 10 0 6 7 10 15 10 8 0 15 4 15 10 0 5 3 9 8 8 25 -7 142 100 135 124 -2
4 1 8 7 8 5 0 7 7 4 15 -4 8 -2 15 3 15 5 0 10 7 10 15 0 8 -4 15 -9 15 -5 0
-4 8 1 19 6 10 7 21 4 25 -4 4 3 9 15 13 12 3 19 9 16 14 -3 5 6 9 20 9 14 0
26 5 26 11 0 8 6 7 17 -2 9 -8 14 -9 10 -3 -8 14 20 27 35 17 6 -3 8 -1 5 4
-8 12 50 26 66 16 6 -3 7 -1 3 5 -7 12 1 15 37 15 9 0 17 3 17 7 0 7 16 9 120
13 36 1 68 7 72 12 5 7 8 6 8 -1 0 -6 15 -9 35 -8 20 2 34 0 31 -4 -2 -4 10
-8 27 -9 43 -2 78 -8 102 -17 62 -25 75 -32 75 -39 0 -5 4 -6 9 -2 5 3 17 -2
25 -11 9 -8 16 -12 16 -8 0 3 6 1 13 -5 8 -6 17 -8 20 -4 4 3 7 -1 7 -10 0 -8
9 -18 20 -22 18 -6 80 -61 80 -71 0 -2 10 -15 23 -30 12 -14 22 -31 22 -37 1
-7 7 -11 15 -9 8 2 12 0 8 -3 -4 -4 -1 -20 8 -36 8 -16 12 -29 9 -29 -3 0 1
-12 8 -27 8 -16 12 -33 10 -40 -2 -6 1 -14 6 -17 7 -4 7 -15 1 -30 -5 -13 -6
-27 -2 -31 11 -11 9 -75 -3 -75 -6 0 -7 -3 0 -8 12 -8 15 -62 4 -62 -4 0 -8
-8 -8 -17 0 -24 -5 -45 -14 -60 -5 -8 -3 -13 5 -13 8 0 6 -5 -5 -11 -9 -6 -15
-14 -12 -20 4 -5 2 -9 -4 -9 -6 0 -7 -7 -4 -17 4 -11 3 -14 -5 -9 -7 4 -12 1
-12 -7 0 -8 -11 -27 -25 -43 -14 -16 -25 -32 -25 -36 0 -5 -7 -8 -17 -8 -9 0
-13 -3 -10 -7 4 -3 -13 -21 -38 -38 -24 -18 -41 -36 -37 -41 4 -5 3 -6 -2 -2
-5 5 -25 -4 -44 -19 -20 -15 -32 -21 -28 -15 4 7 -9 1 -29 -13 -21 -13 -42
-22 -48 -18 -6 3 -7 1 -3 -5 4 -7 3 -12 -2 -12 -5 0 -26 -7 -46 -15 -20 -8
-39 -15 -42 -14 -4 0 -10 -4 -14 -11 -4 -6 -17 -12 -28 -13 -12 -1 -22 -5 -22
-10 0 -4 -4 -6 -9 -2 -5 3 -13 0 -16 -6 -4 -5 -13 -8 -21 -5 -8 3 -14 1 -14
-3 0 -5 -22 -15 -50 -22 -27 -7 -50 -17 -50 -21 0 -5 -4 -6 -10 -3 -5 3 -16 3
-22 -2 -13 -8 -29 -12 -60 -15 -10 -1 -18 -6 -18 -11 0 -5 -11 -7 -25 -5 -14
3 -23 1 -22 -6 1 -6 -6 -10 -15 -8 -10 2 -18 -3 -18 -9 0 -7 -3 -9 -7 -6 -3 4
-13 1 -21 -6 -13 -9 -14 -9 -8 0 5 9 2 11 -8 7 -9 -3 -16 -10 -16 -15 0 -5 -3
-8 -7 -8 -5 1 -11 0 -15 -1 -5 -1 -12 -4 -18 -5 -5 -1 -12 -4 -15 -5 -3 -1 -9
-4 -15 -5 -5 -1 -11 -3 -12 -4 -2 -2 -14 -5 -28 -7 -13 -2 -27 -9 -30 -15 -4
-5 -11 -9 -16 -8 -5 1 -12 0 -16 -1 -13 -4 -27 -7 -39 -9 -5 0 -7 -5 -4 -11 3
-5 0 -7 -8 -4 -8 3 -18 0 -22 -6 -6 -9 -10 -9 -16 1 -6 10 -9 11 -9 2 0 -7 -8
-13 -18 -13 -10 0 -23 -5 -30 -12 -9 -9 -12 -9 -12 3 0 12 -2 12 -10 -1 -5 -8
-13 -15 -17 -15 -18 -1 -120 -39 -140 -53 -13 -8 -23 -11 -23 -7 0 4 -6 2 -13
-4 -8 -6 -17 -8 -20 -4 -4 3 -7 1 -7 -5 0 -7 -3 -11 -7 -10 -5 1 -29 -8 -55
-20 -26 -12 -52 -22 -58 -22 -6 0 -9 -4 -6 -8 2 -4 -5 -9 -17 -9 -12 -1 -23
-7 -25 -13 -2 -5 -8 -8 -13 -4 -5 3 -9 0 -9 -7 0 -7 -3 -9 -7 -6 -3 4 -12 2
-20 -4 -7 -6 -13 -8 -13 -4 0 5 -8 -1 -17 -12 -10 -11 -26 -19 -36 -17 -9 1
-15 -2 -11 -7 5 -8 -9 -13 -28 -10 -5 0 -8 -3 -8 -8 0 -5 -13 -14 -30 -21 -16
-7 -30 -17 -30 -23 0 -6 -3 -7 -7 -4 -3 4 -12 2 -20 -4 -7 -6 -13 -8 -13 -4 0
4 -11 -4 -25 -19 -14 -15 -25 -24 -25 -21 0 4 -7 0 -15 -7 -33 -29 -45 -38
-45 -33 0 4 -6 0 -14 -7 -7 -7 -24 -20 -37 -28 -13 -8 -40 -31 -60 -51 -20
-20 -44 -39 -53 -42 -9 -4 -15 -12 -14 -19 2 -7 -2 -12 -9 -11 -6 2 -14 -6
-18 -16 -3 -11 -13 -22 -21 -25 -9 -3 -12 -11 -8 -17 4 -7 3 -9 -4 -5 -5 3
-20 -10 -32 -29 -12 -19 -26 -35 -31 -35 -6 0 -8 -4 -5 -9 3 -5 -1 -12 -10
-15 -8 -3 -13 -10 -10 -15 3 -5 -1 -14 -9 -21 -8 -7 -12 -16 -9 -21 3 -5 0 -9
-5 -9 -6 0 -11 -6 -11 -14 0 -8 -5 -16 -11 -18 -6 -2 -12 -16 -12 -31 -1 -15
-8 -29 -16 -32 -7 -3 -10 -12 -7 -20 3 -8 1 -15 -4 -15 -6 0 -10 -9 -10 -20 0
-11 -5 -20 -11 -20 -5 0 -8 -4 -4 -9 3 -5 1 -12 -5 -16 -6 -4 -8 -10 -5 -15 3
-5 1 -11 -5 -15 -6 -4 -8 -11 -4 -16 3 -5 0 -17 -8 -26 -11 -14 -11 -16 2 -8
12 6 12 5 3 -5 -6 -7 -9 -18 -7 -25 3 -7 1 -16 -5 -20 -6 -3 -11 -11 -11 -16
0 -6 6 -7 12 -3 9 5 8 2 -1 -9 -8 -10 -15 -32 -15 -50 -1 -18 -6 -39 -11 -46
-5 -10 -4 -16 3 -19 7 -2 9 -9 5 -15 -13 -21 -13 -157 0 -157 7 0 6 -4 -2 -9
-10 -7 -12 -14 -5 -23 6 -7 9 -28 9 -45 -1 -18 3 -33 8 -33 5 0 3 -8 -4 -17
-8 -9 -9 -14 -4 -11 6 4 15 -9 21 -27 6 -20 7 -32 1 -28 -5 3 -4 -4 2 -14 6
-11 7 -23 4 -27 -3 -3 -1 -6 5 -6 7 0 12 -9 12 -20 0 -11 5 -20 11 -20 5 0 8
-4 4 -10 -5 -8 42 -109 57 -120 3 -3 8 -12 10 -20 2 -8 12 -23 22 -32 10 -10
16 -18 12 -18 -4 0 5 -12 19 -26 14 -14 23 -30 19 -35 -3 -5 -1 -8 4 -7 6 2
33 -21 61 -49 28 -29 51 -50 51 -46 0 4 9 -3 21 -15 11 -12 24 -20 30 -17 5 4
9 -1 9 -10 0 -9 4 -13 10 -10 5 3 10 1 10 -4 0 -6 7 -11 15 -11 8 0 15 -4 15
-10 0 -5 7 -10 15 -10 9 0 18 -7 22 -16 5 -13 7 -13 14 -2 7 10 9 10 9 -2 0
-9 9 -16 21 -17 12 -1 28 -10 36 -20 9 -11 12 -12 8 -3 -4 9 -1 8 8 -3 9 -10
18 -18 21 -18 23 3 36 0 32 -7 -3 -5 0 -9 7 -10 28 -2 60 -12 75 -24 13 -11
14 -11 7 2 -7 12 -6 13 7 3 8 -7 18 -10 21 -6 4 3 7 1 7 -6 0 -8 8 -11 20 -8
11 3 20 1 20 -5 0 -5 8 -8 18 -7 29 3 43 -1 38 -9 -3 -5 8 -6 25 -4 19 3 29 0
29 -8 0 -10 4 -9 16 1 10 8 18 9 22 3 6 -9 39 -14 110 -17 6 0 12 -5 12 -11 0
-8 3 -8 8 0 4 6 49 10 107 11 154 1 215 5 210 13 -2 4 11 6 30 5 19 -1 35 3
35 9 0 6 5 4 10 -4 5 -8 10 -10 10 -5 0 6 12 12 27 13 15 1 29 5 32 10 3 4 14
7 24 8 47 2 58 5 53 13 -3 5 4 9 17 10 48 2 67 6 67 14 0 4 4 6 9 2 5 -3 12
-1 16 5 4 6 11 8 16 5 5 -4 12 1 15 10 6 13 8 14 15 3 7 -10 9 -11 9 0 0 7 5
10 10 7 6 -3 10 -2 10 2 0 5 10 9 22 10 11 1 24 7 28 13 4 7 10 12 13 11 15
-1 97 41 97 49 0 5 7 7 15 4 8 -4 15 -1 15 5 0 6 9 11 21 11 11 0 17 5 14 10
-3 6 -2 10 3 10 5 0 28 18 52 40 23 22 47 37 52 34 5 -3 7 -2 6 3 -2 5 31 42
72 83 41 41 74 78 72 83 -1 4 4 7 12 7 8 0 18 9 21 20 4 11 11 18 16 15 5 -4
9 1 9 10 0 9 4 13 10 10 5 -3 15 5 21 19 7 14 20 28 31 31 16 6 22 17 19 37 0
4 7 4 16 1 11 -4 14 -3 9 5 -4 7 -1 12 9 12 9 0 13 4 10 10 -3 5 -2 10 3 10
14 0 52 36 52 49 0 6 3 10 8 8 8 -2 32 16 59 45 9 9 20 15 25 12 4 -3 8 2 8
11 0 9 5 13 10 10 6 -3 10 -1 10 5 0 6 5 8 10 5 6 -3 10 1 10 9 0 9 6 16 14
16 8 0 21 6 28 12 39 36 61 52 53 38 -4 -8 3 -5 17 8 13 12 28 19 31 15 4 -3
7 -1 7 5 0 7 7 12 15 12 8 0 15 5 15 12 0 6 3 9 6 5 3 -3 30 8 60 24 30 17 58
28 63 25 5 -3 12 1 15 10 5 13 9 14 21 4 7 -6 11 -18 8 -26 -3 -8 0 -14 7 -14
9 0 10 -3 1 -13 -6 -8 -7 -17 -3 -21 7 -8 8 -13 11 -41 1 -19 22 -15 39 8 7 9
18 15 23 12 5 -4 9 -2 9 4 0 6 13 24 30 41 16 17 37 42 46 55 9 14 21 22 27
18 5 -3 7 -1 3 5 -3 6 0 17 8 24 7 8 17 24 20 36 4 12 12 22 18 22 5 0 8 7 4
15 -3 8 -1 15 5 15 6 0 7 5 4 10 -3 6 -2 10 3 10 14 0 35 57 26 71 -4 8 -3 10
4 5 8 -5 12 0 12 13 0 11 5 23 11 27 6 3 9 15 6 25 -3 11 -1 19 5 19 5 0 6 5
3 10 -3 6 -1 10 4 10 6 0 10 3 10 8 -1 4 0 9 1 12 14 38 -2 63 -20 29 -7 -11
-14 -19 -16 -16 -3 3 -16 -5 -29 -17 -38 -35 -54 -46 -63 -46 -5 0 -15 -7 -22
-15 -18 -21 -71 -46 -83 -38 -6 3 -7 1 -3 -5 6 -11 -6 -16 -26 -13 -5 0 -8 -4
-8 -11 0 -6 -3 -8 -7 -5 -3 4 -12 -1 -20 -11 -12 -16 -13 -16 -7 3 5 19 5 19
-10 1 -8 -10 -22 -16 -31 -13 -8 4 -15 2 -15 -4 0 -6 -6 -9 -12 -6 -7 2 -22
-3 -32 -12 -11 -9 -16 -10 -12 -3 8 13 -10 17 -18 4 -3 -5 -18 -8 -33 -7 -15
1 -31 -3 -35 -9 -6 -8 -8 -8 -8 0 0 7 -11 9 -25 6 -25 -4 -30 -26 -7 -28 7 -1
15 -3 20 -4 4 -1 11 -2 15 -1 5 1 6 -3 2 -9 -3 -5 -1 -10 5 -10 6 0 8 -5 4
-12 -5 -9 -3 -9 9 1 14 11 18 11 23 -3 3 -9 10 -14 14 -11 5 3 11 1 14 -4 6
-9 -31 -27 -46 -23 -5 1 -8 -2 -8 -7 0 -5 -13 -7 -30 -6 -16 1 -27 -1 -24 -6
3 -5 2 -9 -3 -10 -4 0 -17 -3 -28 -5 -11 -3 -26 -6 -32 -6 -7 -1 -13 -5 -13
-10 0 -4 -8 -8 -18 -8 -10 0 -22 -3 -26 -7 -3 -4 -12 -8 -19 -9 -36 -7 -106
-41 -100 -49 5 -4 0 -6 -9 -2 -9 3 -19 0 -22 -9 -3 -8 -11 -14 -18 -14 -9 0
-8 3 2 10 8 5 11 10 7 10 -10 0 -78 -50 -89 -65 -5 -6 -8 -4 -8 5 -1 13 -2 13
-13 0 -14 -17 -42 -36 -74 -50 -13 -5 -23 -14 -23 -20 0 -6 -4 -9 -8 -6 -5 3
-18 -4 -30 -14 -12 -11 -28 -20 -36 -20 -9 0 -20 -9 -26 -20 -6 -11 -15 -20
-21 -20 -6 0 -17 -7 -26 -15 -8 -8 -19 -12 -25 -9 -7 4 -8 2 -4 -4 4 -7 2 -12
-4 -12 -6 0 -20 -9 -32 -20 -12 -10 -25 -17 -30 -14 -4 3 -8 0 -8 -5 0 -6 -7
-11 -16 -11 -8 0 -12 -5 -9 -11 4 -6 1 -9 -6 -8 -8 1 -39 -10 -69 -24 -30 -15
-61 -27 -68 -27 -7 0 -10 -5 -6 -12 4 -6 3 -8 -4 -4 -6 3 -23 1 -39 -6 -15 -6
-31 -12 -35 -12 -3 -1 -9 -4 -13 -8 -4 -4 -13 -4 -21 -1 -8 3 -14 0 -14 -7 0
-7 -7 -10 -15 -6 -8 3 -15 2 -15 -2 0 -4 -11 -8 -25 -9 -14 -1 -36 -4 -50 -5
-14 -1 -25 -5 -25 -10 0 -4 -6 -5 -14 -2 -8 3 -17 0 -21 -6 -5 -8 -11 -8 -21
1 -9 7 -14 8 -14 1 0 -6 -8 -11 -17 -11 -74 0 -225 -11 -234 -17 -7 -4 -9 -3
-6 3 4 6 -14 11 -45 12 -29 1 -56 7 -60 14 -6 9 -8 9 -8 -2 0 -9 -4 -10 -12
-4 -7 6 -20 11 -28 11 -22 1 -66 11 -94 22 -13 5 -27 6 -30 3 -3 -4 -6 -2 -6
4 0 6 -7 14 -16 17 -10 4 -13 2 -8 -7 6 -9 5 -9 -8 0 -8 7 -18 10 -21 6 -4 -3
-7 -2 -7 4 0 5 -26 21 -57 36 -32 15 -70 38 -85 52 -15 14 -33 25 -39 25 -7 0
-10 3 -7 6 3 3 -12 23 -34 45 -22 21 -37 39 -34 39 3 0 -6 16 -19 36 -14 20
-25 43 -25 50 0 8 -6 14 -12 14 -10 0 -10 2 0 9 11 7 10 9 -3 14 -9 4 -15 12
-14 19 1 7 -1 33 -5 58 -10 66 -12 169 -3 163 4 -2 6 7 3 21 -3 14 -1 26 4 26
4 0 7 11 5 25 -1 14 2 25 6 25 5 0 8 3 8 8 -4 21 2 32 13 26 8 -5 9 -2 5 10
-4 9 0 27 8 40 8 12 12 26 8 29 -3 4 -1 7 6 7 7 0 10 4 7 9 -3 5 1 11 9 15 8
3 15 12 15 19 0 8 7 20 15 27 8 7 12 16 9 21 -3 5 3 6 13 2 10 -3 15 -3 11 1
-8 10 23 47 34 40 5 -3 7 0 6 7 -2 7 7 18 19 24 13 7 20 15 16 18 -3 4 1 7 10
7 9 0 17 5 17 11 0 5 5 7 10 4 6 -3 10 1 10 9 0 9 3 15 8 14 8 -3 63 32 73 45
3 5 8 8 10 7 9 -3 45 15 57 29 8 9 11 11 8 4 -5 -8 0 -8 18 0 13 7 22 16 19
21 -4 5 1 7 10 3 10 -4 17 -1 17 5 0 6 3 8 6 5 4 -4 20 0 35 8 16 8 42 22 58
30 15 8 31 12 35 8 3 -3 6 0 6 7 0 7 3 11 6 7 4 -3 19 0 34 8 15 8 30 11 34 8
3 -4 6 -1 6 6 0 7 4 10 9 6 5 -3 12 -1 16 5 4 6 11 8 16 5 5 -4 9 -2 9 3 0 8
6 10 50 14 11 1 20 6 20 10 0 4 16 10 35 14 19 3 35 10 35 15 0 4 9 6 20 4 11
-2 20 1 20 7 0 6 3 8 7 5 3 -4 11 -2 18 3 6 5 20 11 31 13 19 4 40 11 82 28
13 5 27 7 32 4 4 -3 10 2 14 10 3 8 12 12 21 9 8 -3 15 -2 15 4 0 6 8 9 18 7
9 -1 23 2 30 8 7 5 15 7 18 4 4 -3 13 1 21 9 8 8 19 12 24 9 5 -4 9 -2 9 3 0
5 6 9 13 10 44 6 57 10 71 21 8 7 20 10 25 7 5 -4 12 -2 16 3 3 5 14 8 25 6
11 -2 20 -1 20 3 0 4 21 14 48 21 26 8 67 23 92 34 25 11 50 21 55 22 25 3 65
26 65 36 0 8 6 7 17 -2 11 -10 14 -10 9 -1 -4 7 -1 12 8 12 9 0 16 5 16 11 0
5 5 7 10 4 6 -3 13 0 16 9 3 8 12 12 20 9 8 -3 14 0 14 6 0 6 7 11 15 11 8 0
15 5 15 11 0 5 4 8 9 5 5 -3 14 1 21 9 7 8 16 12 21 9 5 -3 9 -1 9 5 0 5 10
13 22 17 12 3 26 10 32 15 50 41 60 48 67 44 4 -3 10 4 14 15 4 11 10 18 14
16 9 -6 127 106 123 116 -1 5 1 7 5 6 5 -2 10 2 12 7 3 6 13 19 23 29 9 10 15
24 11 29 -3 6 -1 7 5 3 6 -4 18 8 28 29 9 19 20 35 23 35 7 0 9 7 13 49 1 11
6 17 10 15 4 -3 8 4 8 15 0 12 4 21 8 21 8 0 11 12 15 60 1 14 5 28 9 31 5 3
9 17 10 32 1 15 7 27 13 27 5 0 3 5 -5 10 -13 9 -13 10 0 10 13 0 13 1 0 10
-8 5 -10 10 -4 10 5 0 10 10 11 23 1 12 2 48 3 80 2 34 7 57 14 57 7 0 7 3 1
8 -14 10 -16 45 -2 54 9 6 9 8 1 8 -7 0 -12 15 -12 33 -1 74 -10 155 -22 176
-6 13 -9 29 -6 37 3 8 1 14 -4 14 -6 0 -10 5 -10 11 0 5 6 7 13 3 6 -4 4 1 -5
12 -9 10 -17 22 -17 27 -1 4 -2 9 -2 12 -1 3 -3 10 -4 15 -1 6 -4 12 -5 15 -1
3 -3 8 -4 13 -1 4 -10 24 -19 46 -9 21 -17 45 -17 53 0 8 -4 11 -10 8 -5 -3
-12 6 -16 20 -3 14 -11 25 -17 25 -6 0 -8 3 -4 6 6 7 -40 80 -69 108 -8 9 -13
16 -9 16 4 0 -11 18 -33 39 -22 22 -37 42 -34 45 3 3 -2 6 -11 6 -8 0 -19 9
-22 20 -3 11 -10 20 -16 20 -8 0 -26 14 -94 75 -12 11 -29 21 -36 23 -8 2 -15
8 -17 13 -2 5 -10 9 -17 9 -8 0 -20 7 -29 15 -8 9 -19 16 -23 16 -10 1 -76 31
-83 38 -5 6 -14 7 -62 13 -10 1 -18 6 -18 11 0 4 -4 6 -8 3 -5 -3 -21 1 -36 9
-14 8 -24 10 -21 5 4 -6 1 -10 -4 -10 -6 0 -11 3 -11 8 0 4 -13 7 -30 8 -17 1
-27 -3 -23 -9 4 -6 1 -7 -8 -1 -20 12 -139 14 -139 2 0 -6 -6 -6 -14 1 -10 8
-16 9 -21 1 -3 -5 -11 -10 -16 -10 -6 0 -7 6 -3 13 6 9 5 9 -7 0 -8 -6 -27
-12 -44 -14 -16 -2 -35 -7 -42 -12 -7 -5 -17 -6 -23 -2 -5 3 -10 1 -10 -4 0
-6 -11 -11 -25 -11 -14 0 -25 -5 -25 -11 0 -5 -4 -7 -10 -4 -5 3 -10 0 -10 -7
0 -9 -3 -9 -10 2 -7 11 -10 11 -10 2 0 -7 -4 -10 -10 -7 -5 3 -10 2 -10 -3 0
-9 -37 -25 -52 -23 -5 1 -8 -4 -8 -10 0 -5 -4 -7 -10 -4 -5 3 -10 1 -10 -6 0
-7 -3 -9 -6 -6 -4 4 -19 -2 -34 -13 -16 -11 -32 -20 -37 -20 -5 0 -18 -8 -29
-17 -10 -10 -36 -29 -56 -43 -20 -13 -35 -27 -33 -31 3 -3 -6 -5 -18 -4 -32 4
-32 3 -33 28 -3 61 -10 97 -18 97 -5 0 -3 6 3 14 9 11 9 15 -1 19 -8 3 -8 6
-2 6 7 1 10 14 8 32 -2 16 0 28 5 25 5 -3 8 2 8 12 0 26 14 62 24 62 5 0 9 6
9 14 0 8 9 21 20 29 11 8 17 17 13 20 -3 4 1 7 10 7 10 0 17 5 17 10 0 12 48
34 70 32 10 -1 11 0 2 4 -6 3 -10 10 -6 15 3 5 -8 8 -26 7 -17 -1 -34 -6 -36
-10z m-228 -750 c5 -7 2 -8 -7 -3 -11 6 -12 5 -1 -6 6 -7 12 -17 12 -22 0 -4
-6 -5 -12 -1 -10 6 -10 5 0 -8 10 -12 8 -20 -13 -42 -14 -15 -29 -25 -34 -22
-5 4 -12 0 -14 -6 -3 -7 -4 2 -3 20 2 17 5 35 9 38 3 3 3 13 0 22 -4 10 -2 13
5 8 6 -3 16 3 22 14 12 22 25 26 36 8z"/>
<path d="M1780 4570 c-21 -11 -37 -14 -41 -8 -3 5 -9 3 -12 -6 -4 -9 -10 -15
-14 -14 -13 3 -58 -14 -65 -26 -6 -8 -8 -8 -8 0 0 7 -11 9 -25 6 -14 -2 -25
-8 -25 -13 0 -4 -9 -6 -20 -4 -11 2 -20 0 -20 -6 0 -5 -9 -9 -19 -9 -19 0 -99
-30 -134 -50 -10 -6 -22 -8 -27 -5 -6 4 -10 1 -10 -4 0 -6 -7 -11 -16 -11 -8
0 -12 -4 -9 -10 3 -6 -1 -7 -9 -4 -9 3 -16 1 -16 -6 0 -6 -4 -9 -9 -6 -5 3
-14 -1 -21 -9 -7 -8 -18 -15 -24 -15 -18 0 -66 -24 -66 -32 0 -5 -9 -8 -20 -8
-11 0 -20 -4 -20 -9 0 -5 -16 -16 -35 -25 -19 -9 -35 -21 -35 -27 0 -6 -4 -8
-10 -4 -5 3 -18 -3 -30 -15 -11 -11 -25 -20 -31 -20 -6 0 -16 -6 -23 -12 -8
-7 -24 -20 -36 -28 -12 -8 -31 -23 -42 -32 -12 -10 -28 -18 -36 -18 -9 0 -12
-3 -9 -6 3 -4 -12 -20 -33 -35 -22 -16 -40 -34 -40 -40 0 -6 -7 -9 -15 -5 -9
3 -15 0 -15 -9 0 -8 -7 -15 -16 -15 -8 0 -13 -3 -11 -7 2 -5 -4 -16 -15 -25
-10 -10 -18 -16 -18 -14 0 3 -13 -7 -28 -22 -16 -15 -28 -29 -28 -32 1 -3 -3
-7 -9 -10 -14 -8 -62 -55 -59 -58 1 -2 -15 -22 -36 -44 -63 -67 -74 -81 -93
-111 -9 -15 -22 -25 -27 -22 -5 3 -7 -4 -5 -15 2 -11 0 -20 -6 -20 -5 0 -14
-11 -21 -25 -6 -13 -16 -22 -22 -18 -6 3 -8 3 -4 -2 4 -4 -6 -27 -22 -51 -17
-23 -30 -47 -30 -53 0 -6 -4 -11 -10 -11 -5 0 -10 -6 -10 -14 0 -7 -7 -19 -15
-26 -9 -7 -14 -19 -11 -26 3 -7 -2 -15 -10 -18 -9 -3 -13 -10 -9 -15 3 -5 0
-13 -6 -16 -5 -4 -8 -14 -5 -22 3 -8 1 -11 -4 -8 -12 7 -33 -42 -24 -56 3 -5
0 -8 -7 -7 -7 2 -14 -3 -15 -9 -1 -7 -2 -18 -3 -24 0 -5 -6 -7 -13 -3 -7 5 -8
3 -3 -5 7 -12 1 -30 -26 -83 -5 -10 -9 -25 -9 -33 0 -9 -3 -14 -7 -12 -5 3 -9
-5 -9 -16 -2 -26 -8 -52 -23 -89 -6 -16 -8 -28 -5 -28 4 0 1 -7 -6 -15 -6 -8
-9 -19 -5 -25 3 -5 1 -10 -5 -10 -6 0 -8 -11 -6 -24 3 -16 -1 -27 -11 -31 -12
-4 -13 -9 -5 -17 8 -8 8 -17 1 -30 -5 -10 -7 -18 -3 -18 3 0 1 -7 -6 -15 -10
-12 -10 -15 1 -15 12 0 12 -2 1 -9 -8 -4 -13 -11 -13 -15 4 -29 -1 -56 -9 -51
-5 3 -10 1 -10 -4 0 -6 4 -11 9 -11 10 0 9 -19 -2 -37 -5 -8 -3 -13 4 -13 7 0
8 -4 2 -12 -7 -11 -10 -155 -3 -183 1 -5 2 -12 1 -15 -7 -19 -6 -82 1 -86 4
-3 5 -11 1 -17 -10 -17 -13 -37 -4 -37 4 0 8 -21 10 -47 1 -27 2 -63 3 -80 1
-18 4 -33 8 -33 4 0 7 -15 8 -33 1 -19 6 -46 12 -62 6 -15 8 -30 5 -33 -2 -3
0 -10 5 -17 5 -6 12 -29 16 -51 3 -21 10 -46 14 -54 4 -8 10 -26 11 -40 2 -14
9 -31 16 -37 6 -7 10 -21 9 -30 -2 -10 3 -24 11 -31 7 -8 11 -18 8 -23 -4 -5
-1 -9 5 -9 7 0 9 -7 6 -16 -4 -12 -2 -15 9 -10 12 4 13 2 5 -13 -7 -14 -6 -20
5 -25 8 -3 12 -12 9 -21 -3 -8 -2 -15 3 -15 5 0 20 -24 33 -54 13 -30 26 -53
30 -51 3 2 7 -6 7 -18 1 -12 8 -26 16 -32 8 -5 15 -14 17 -20 4 -17 54 -100
62 -103 4 -2 8 -8 8 -13 0 -10 58 -89 74 -100 5 -4 5 -12 1 -19 -5 -8 -4 -11
2 -7 10 6 43 -27 43 -44 0 -5 4 -7 10 -4 5 3 10 -1 10 -9 0 -8 8 -20 17 -25
10 -6 14 -11 9 -11 -4 0 7 -14 25 -32 19 -17 33 -35 32 -40 -2 -4 0 -7 5 -5 4
1 33 -24 64 -56 31 -31 61 -57 67 -57 5 0 12 -8 16 -17 3 -10 23 -29 45 -42
22 -14 38 -27 35 -29 -5 -6 62 -52 75 -52 6 0 10 -5 10 -12 0 -15 13 -1 16 17
1 8 -2 15 -8 15 -6 0 -7 8 -4 17 4 10 4 15 1 11 -9 -9 -45 23 -45 40 0 7 -5
10 -10 7 -6 -3 -10 0 -10 7 0 8 -9 20 -20 28 -11 8 -20 20 -20 28 0 7 -5 10
-10 7 -6 -3 -10 1 -10 10 0 8 -7 18 -15 21 -8 4 -13 9 -10 13 2 4 -5 14 -16
21 -10 8 -19 20 -19 27 0 7 -4 13 -8 13 -12 0 -42 56 -34 64 4 4 2 6 -5 4 -6
-2 -11 1 -11 6 0 5 -4 12 -9 15 -5 3 -20 25 -33 49 -13 23 -27 42 -32 42 -4 0
-5 7 -2 15 4 8 1 15 -6 15 -6 0 -8 5 -5 10 3 6 1 10 -4 10 -6 0 -11 7 -11 15
0 8 -4 15 -10 15 -5 0 -9 3 -8 7 3 15 -42 123 -51 123 -4 0 -8 12 -9 27 -1 15
-7 32 -12 37 -6 6 -10 20 -10 33 0 13 -4 23 -8 23 -7 0 -11 16 -14 58 -1 6 -5
12 -10 12 -5 0 -8 10 -6 23 2 12 -2 21 -7 20 -6 -1 -10 16 -10 38 0 21 -4 39
-10 39 -5 0 -3 4 5 10 12 8 12 10 -2 15 -13 5 -15 12 -8 31 7 18 6 26 -4 30
-8 3 -12 19 -11 45 1 21 -2 39 -8 39 -5 0 -4 7 3 15 8 10 9 15 2 15 -6 0 -11
15 -10 33 1 19 -2 39 -6 45 -4 7 -1 12 6 12 10 0 10 2 -1 9 -11 7 -10 11 5 20
15 8 16 10 3 11 -21 0 -21 147 1 160 8 6 10 10 4 10 -12 0 -13 38 -1 58 5 7 4
12 -2 12 -6 0 -11 5 -11 11 0 5 4 8 8 5 5 -3 8 9 7 27 -1 18 3 35 9 39 7 5 7
8 -3 8 -11 0 -11 3 -1 15 8 9 8 15 2 15 -7 0 -8 10 -2 30 5 17 6 30 3 30 -3 0
-1 6 4 13 6 6 9 20 8 30 -2 9 2 17 8 17 5 0 7 3 4 6 -3 4 -2 15 4 25 7 14 6
19 -3 19 -10 0 -10 2 -1 8 11 7 19 37 25 90 1 6 6 12 12 12 6 0 12 14 13 32 1
17 8 35 15 40 10 6 10 8 -1 8 -12 0 -11 3 1 18 9 9 19 32 23 50 3 17 11 32 17
32 6 0 8 7 5 15 -4 8 -2 17 4 20 5 4 7 11 4 16 -4 5 -3 9 2 9 4 0 16 20 26 45
11 26 23 42 30 38 6 -3 7 -1 3 6 -4 6 6 34 23 62 17 27 32 55 34 62 1 7 10 19
19 28 10 9 15 19 11 23 -3 3 -1 6 5 6 7 0 12 5 12 10 0 6 12 22 26 35 15 14
21 25 14 25 -8 0 -4 8 8 19 12 10 19 21 15 25 -3 3 1 6 10 6 9 0 19 5 23 12 5
7 2 9 -7 4 -8 -4 -6 -1 4 7 9 8 17 19 17 25 0 5 7 13 16 16 8 3 12 10 9 16 -3
5 1 10 9 10 9 0 16 7 16 15 0 8 6 14 13 12 6 -1 11 5 9 13 -3 12 -1 13 10 2
11 -11 10 -15 -3 -25 -9 -7 -14 -18 -11 -25 2 -7 -4 -23 -14 -34 -13 -15 -14
-19 -4 -14 13 7 13 6 0 -6 -14 -12 -20 -29 -23 -70 -1 -10 -5 -18 -10 -18 -4
0 -6 -4 -2 -9 3 -5 -1 -16 -9 -24 -8 -8 -12 -17 -9 -21 3 -3 0 -12 -7 -21 -10
-12 -10 -15 1 -15 10 -1 9 -4 -3 -14 -10 -7 -15 -16 -11 -19 3 -4 0 -13 -7
-22 -7 -8 -9 -15 -5 -15 4 0 2 -6 -4 -13 -6 -8 -8 -17 -4 -20 3 -4 0 -14 -8
-24 -12 -14 -12 -16 0 -8 11 6 11 3 -2 -14 -8 -13 -13 -30 -10 -37 3 -8 0 -20
-6 -27 -6 -8 -9 -23 -6 -35 2 -12 -1 -22 -8 -22 -8 0 -8 -3 1 -12 9 -9 8 -16
-6 -32 -12 -14 -13 -17 -2 -11 9 5 7 -1 -5 -15 -11 -13 -14 -20 -7 -16 6 4 12
2 12 -3 0 -6 -5 -11 -11 -11 -8 0 -8 -5 1 -15 10 -12 9 -16 -2 -20 -10 -4 -13
-24 -13 -70 0 -36 -2 -65 -5 -65 -3 0 -5 -63 -5 -140 0 -77 -2 -140 -5 -140
-3 0 -6 -9 -6 -19 0 -11 4 -17 9 -14 5 3 6 -10 4 -28 -2 -19 0 -42 5 -53 8
-14 7 -17 -3 -11 -7 5 -10 4 -6 -2 8 -13 20 -73 19 -98 -1 -10 4 -26 11 -34 9
-12 9 -13 0 -7 -14 8 -18 -6 -6 -18 4 -3 8 -12 9 -19 1 -7 5 -30 9 -52 4 -22
11 -48 16 -57 12 -23 11 -31 -3 -22 -7 4 -6 -1 3 -12 9 -10 15 -27 14 -36 -2
-10 1 -18 6 -18 5 0 9 -11 9 -25 0 -14 4 -25 8 -25 4 0 8 -10 9 -22 1 -11 6
-24 10 -27 4 -3 10 -17 11 -31 2 -14 8 -26 13 -28 5 -2 9 -12 9 -23 0 -10 5
-19 10 -19 6 0 10 -9 10 -20 0 -11 5 -20 11 -20 5 0 7 -4 4 -10 -3 -5 -2 -10
4 -10 5 0 12 -10 14 -22 l4 -23 8 22 c4 13 12 20 17 17 7 -5 7 -1 1 11 -6 10
-8 26 -6 36 3 11 1 19 -5 19 -6 0 -9 9 -7 20 2 11 0 22 -5 25 -5 3 -7 14 -5
25 2 12 0 18 -4 16 -4 -3 -9 11 -10 32 -1 20 -3 43 -3 50 -1 6 -4 12 -8 12 -6
0 -11 48 -12 117 0 13 -5 20 -10 17 -6 -4 -5 3 1 15 7 12 8 21 2 21 -7 0 -8
28 -1 38 1 1 2 11 2 22 0 11 -1 21 -2 23 -8 11 -6 37 3 37 7 0 6 5 -3 10 -13
9 -13 11 0 20 11 7 11 10 2 10 -9 0 -10 5 -2 19 7 14 7 22 0 26 -8 5 -8 11 -1
19 7 9 7 17 -2 26 -6 7 -7 10 -1 7 6 -4 11 12 11 43 1 27 7 59 13 71 9 16 9
20 0 14 -9 -6 -9 -3 -1 13 6 11 11 34 11 49 0 16 6 35 13 42 10 11 9 12 -3 6
-12 -7 -13 -6 -4 6 5 8 10 26 9 42 0 15 2 27 6 27 4 0 6 11 4 25 -1 14 1 25 5
25 4 0 10 10 13 23 2 12 8 31 12 41 7 15 5 18 -6 12 -8 -4 -6 -1 4 7 10 9 15
21 11 31 -3 9 -1 16 5 16 6 0 11 9 11 21 0 13 4 18 12 13 7 -4 8 -3 4 4 -6 10
10 72 31 122 3 8 7 19 7 23 1 5 10 15 20 23 20 14 20 14 0 14 -16 1 -17 2 -4
13 8 7 16 19 18 27 2 8 10 22 18 31 8 8 14 23 14 32 0 9 5 19 10 22 6 4 8 10
5 15 -3 4 2 11 11 14 8 3 12 10 9 16 -3 5 -1 10 4 10 6 0 10 3 10 8 -3 20 2
43 9 38 5 -3 18 17 30 44 12 28 26 50 31 50 5 0 14 14 20 30 5 17 15 30 20 30
6 0 10 3 9 8 -3 15 15 42 25 35 5 -3 7 -1 4 4 -4 6 4 22 18 37 13 14 21 26 18
26 -4 0 3 9 15 21 12 11 19 25 16 31 -4 7 -2 8 5 4 6 -4 14 0 18 11 4 10 20
29 35 43 15 13 28 30 28 37 0 15 50 54 61 47 5 -3 7 -10 4 -15 -4 -5 -2 -9 4
-9 6 0 14 -12 17 -27 4 -16 16 -43 26 -61 11 -20 13 -30 6 -26 -14 8 10 -26
25 -37 5 -3 8 -9 8 -13 -3 -23 0 -36 9 -31 9 5 11 -2 10 -30 0 -3 9 -15 20
-27 11 -12 20 -26 20 -30 0 -5 9 -19 20 -31 11 -12 18 -27 15 -35 -2 -7 -1
-10 4 -7 6 3 23 -14 40 -37 16 -24 48 -63 70 -87 23 -24 41 -48 41 -54 0 -6 3
-8 6 -4 3 3 28 -17 55 -45 27 -28 49 -48 49 -45 0 4 16 -9 35 -29 19 -19 35
-32 35 -29 0 4 9 -2 62 -47 11 -10 24 -15 28 -13 4 3 11 -2 14 -11 3 -8 10
-12 16 -9 5 3 10 2 10 -3 0 -5 12 -15 28 -23 15 -8 29 -17 32 -21 3 -3 12 -8
20 -10 8 -2 21 -9 28 -16 8 -7 17 -10 22 -7 4 3 11 -2 14 -11 3 -8 11 -12 17
-8 6 3 15 0 20 -7 7 -11 9 -11 9 -1 0 8 5 10 13 6 8 -5 8 -3 -2 9 -7 9 -17 15
-21 12 -4 -3 -10 2 -14 10 -3 8 -12 15 -21 15 -8 0 -15 5 -15 10 0 6 -7 10
-16 10 -8 0 -12 5 -9 10 3 6 0 10 -8 10 -8 0 -17 7 -21 15 -3 8 -11 15 -18 15
-16 0 -49 36 -41 44 4 3 0 6 -7 6 -11 0 -110 96 -110 106 0 4 -38 48 -76 90
-12 12 -20 25 -17 28 3 3 -6 16 -21 29 -14 13 -22 27 -18 31 4 4 -1 12 -11 17
-9 6 -17 17 -17 24 0 8 -5 15 -11 15 -5 0 -8 4 -4 9 3 5 -2 16 -11 25 -8 9
-12 20 -9 26 4 6 1 9 -7 8 -8 -2 -12 4 -10 15 2 9 -2 17 -8 17 -5 0 -10 7 -10
15 0 8 -4 15 -10 15 -5 0 -6 7 -3 17 4 10 2 14 -4 10 -5 -3 -9 3 -8 16 1 12
-4 28 -12 35 -7 7 -13 22 -13 33 0 10 -4 19 -9 19 -6 0 -8 9 -6 20 2 11 0 20
-5 20 -5 0 -7 7 -4 15 4 8 1 15 -6 15 -6 0 -9 4 -6 9 4 5 0 12 -6 14 -10 4 -9
6 1 6 10 1 11 4 3 14 -17 19 -22 65 -9 71 7 3 6 5 -3 5 -11 1 -15 12 -15 39 1
20 -3 43 -8 50 -5 6 -10 60 -11 120 -1 59 -6 113 -10 121 -6 10 -5 12 2 7 8
-5 12 0 12 13 0 11 5 23 10 26 7 4 7 12 2 18 -10 15 -10 27 2 46 7 10 6 12 -4
6 -10 -6 -11 -4 -4 6 4 8 10 23 12 34 1 11 4 27 5 37 2 9 9 24 17 34 9 11 10
15 3 10 -7 -4 -13 -2 -13 3 0 6 5 11 11 11 5 0 7 5 4 10 -4 6 -1 17 5 25 7 8
9 15 5 15 -4 0 0 12 10 26 10 16 12 23 4 18 -7 -4 -2 8 11 26 13 18 18 30 11
26 -17 -11 9 36 26 47 7 4 10 14 7 22 -4 8 -2 15 4 15 5 0 12 9 15 20 3 11 4
20 4 19 -1 -1 -18 -9 -37 -19z"/>
<path d="M4380 3854 c0 -5 4 -26 9 -46 6 -27 6 -38 -3 -38 -6 0 -4 -5 4 -10 8
-5 11 -10 6 -10 -6 0 -5 -5 2 -12 7 -7 8 -17 1 -30 -7 -13 -6 -18 2 -18 7 0 8
-5 2 -12 -4 -7 -8 -43 -8 -80 0 -38 -3 -68 -7 -68 -4 0 -5 -11 -2 -24 2 -14 0
-27 -5 -31 -6 -3 -8 -14 -6 -25 2 -11 1 -20 -3 -20 -4 0 -8 -8 -8 -17 0 -10
-4 -29 -8 -42 -6 -18 -5 -22 5 -17 8 4 5 0 -5 -8 -11 -9 -16 -16 -12 -16 5 0
3 -7 -4 -15 -7 -9 -10 -18 -7 -22 4 -3 1 -15 -5 -27 -7 -11 -13 -25 -14 -31
-6 -29 -10 -41 -17 -46 -4 -3 -9 -16 -10 -27 -1 -12 -5 -22 -9 -22 -4 0 -8 -7
-8 -15 0 -8 -5 -15 -11 -15 -5 0 -8 -4 -4 -9 3 -5 -2 -17 -11 -25 -8 -9 -12
-16 -8 -16 4 0 -1 -9 -10 -19 -10 -11 -15 -25 -11 -30 3 -6 -1 -11 -10 -11 -9
0 -13 -4 -10 -10 3 -5 1 -10 -4 -10 -6 0 -10 -6 -8 -12 1 -7 -4 -12 -11 -10
-8 1 -11 -2 -8 -7 4 -5 -1 -17 -10 -25 -8 -9 -12 -16 -7 -16 4 0 -4 -11 -19
-24 -15 -12 -25 -26 -22 -29 3 -3 -3 -12 -15 -19 -12 -7 -21 -21 -21 -32 0
-11 -3 -17 -6 -13 -6 6 -45 -29 -43 -39 0 -4 -11 -14 -25 -24 -15 -9 -23 -20
-19 -23 3 -4 -1 -7 -10 -7 -8 0 -18 -9 -22 -20 -3 -11 -10 -19 -14 -17 -4 1
-24 -16 -44 -37 -20 -21 -37 -35 -37 -30 0 4 -7 -1 -15 -12 -8 -10 -15 -15
-15 -11 0 5 -15 -6 -33 -25 -19 -18 -40 -34 -48 -36 -8 -2 -15 -8 -17 -13 -2
-5 -10 -9 -17 -9 -7 0 -15 -7 -19 -15 -3 -8 -9 -14 -13 -13 -13 3 -63 -24 -63
-34 0 -5 -5 -6 -10 -3 -6 3 -13 -1 -16 -9 -3 -9 -10 -16 -16 -16 -5 0 -6 6 -3
13 4 6 1 5 -7 -3 -14 -17 -78 -46 -90 -42 -5 1 -8 -2 -8 -8 0 -5 -7 -10 -15
-10 -8 0 -15 -4 -15 -10 0 -5 -7 -7 -15 -4 -8 4 -15 1 -15 -6 0 -9 -4 -9 -17
1 -9 8 -14 9 -10 2 5 -7 -4 -14 -23 -18 -17 -4 -28 -10 -25 -14 2 -5 -7 -7
-20 -5 -14 1 -31 -3 -38 -9 -6 -7 -21 -13 -32 -14 -11 -1 -33 -5 -50 -8 -41
-9 -68 -13 -82 -14 -7 -1 -13 -8 -13 -17 0 -11 6 -14 20 -9 13 4 20 2 20 -7 0
-11 2 -11 9 0 4 8 14 13 22 12 8 -1 31 -2 52 -1 28 1 36 4 31 14 -6 9 -5 9 7
0 16 -13 30 -14 44 -3 6 4 22 7 38 6 15 -1 27 1 27 5 0 3 11 4 25 1 14 -2 25
0 25 6 0 6 9 9 20 7 11 -2 20 0 20 5 0 4 8 7 18 5 9 -1 23 2 30 8 6 5 12 7 12
3 0 -3 16 1 36 9 20 8 40 12 45 9 5 -3 9 0 9 6 0 7 7 10 15 6 8 -3 15 0 15 6
0 6 3 8 7 5 3 -4 15 1 26 10 11 10 17 12 13 5 -4 -7 9 -3 30 8 20 12 43 19 50
16 8 -3 11 0 8 9 -4 10 0 13 14 10 12 -2 23 3 26 11 3 9 10 12 16 9 5 -3 10
-1 10 5 0 6 5 8 10 5 6 -3 10 -1 10 4 0 6 7 11 15 11 8 0 15 4 15 10 0 5 3 9
8 8 12 -3 62 25 62 35 0 5 7 7 15 3 8 -3 14 -1 12 5 -1 6 7 16 18 22 11 7 24
18 28 25 4 6 17 12 28 12 11 0 17 5 14 10 -3 6 -1 10 5 10 6 0 24 12 40 28 15
15 39 35 54 46 14 10 24 21 22 25 -1 3 5 14 16 24 10 9 18 14 18 11 0 -3 7 1
15 10 8 8 15 18 15 21 0 4 11 16 25 27 14 11 25 25 25 32 0 6 9 18 20 26 11 8
20 20 20 27 0 7 5 13 11 13 5 0 7 5 4 10 -3 6 -2 10 4 10 6 0 13 11 17 25 3
14 9 25 13 25 4 0 13 11 19 25 17 38 27 30 27 -20 0 -25 -2 -45 -5 -45 -3 0
-5 -13 -5 -30 0 -16 4 -30 8 -30 5 0 5 -5 2 -10 -4 -6 -11 -7 -17 -4 -6 4 -6
-1 1 -14 13 -25 14 -35 3 -28 -5 3 -8 -11 -7 -30 1 -19 -2 -37 -6 -40 -14 -8
-10 -26 4 -18 6 4 5 -1 -4 -12 -8 -10 -14 -29 -13 -41 0 -12 -6 -25 -15 -28
-13 -5 -14 -7 -1 -16 13 -8 12 -11 -4 -20 -15 -9 -16 -13 -5 -20 10 -6 10 -9
2 -9 -7 0 -15 -16 -19 -36 -5 -27 -9 -32 -16 -22 -7 10 -8 8 -4 -5 5 -16 -7
-47 -46 -117 -4 -8 -16 -32 -25 -52 -10 -21 -21 -38 -25 -38 -5 0 -8 -7 -8
-15 0 -8 -5 -15 -11 -15 -6 0 -9 -6 -6 -14 6 -15 -27 -48 -39 -38 -4 4 -4 2
-1 -4 3 -6 -6 -23 -21 -39 -15 -16 -26 -33 -24 -38 1 -4 -5 -10 -13 -13 -8 -4
-15 -13 -15 -21 0 -8 -4 -11 -10 -8 -5 3 -10 2 -10 -3 0 -18 -200 -212 -219
-212 -6 0 -11 -4 -11 -8 0 -4 -14 -16 -30 -26 -17 -9 -28 -21 -25 -25 2 -5 -7
-7 -20 -5 -14 1 -23 -1 -20 -6 3 -4 -6 -15 -20 -24 -14 -9 -25 -14 -25 -11 0
2 -8 -2 -17 -10 -10 -8 -21 -14 -25 -13 -4 2 -14 -6 -23 -17 -9 -11 -13 -13
-9 -6 5 9 -5 6 -23 -7 -17 -12 -36 -22 -41 -22 -19 0 -62 -27 -54 -35 4 -5 2
-5 -5 -2 -6 4 -24 2 -40 -5 -15 -6 -31 -11 -35 -10 -5 1 -8 -2 -8 -8 0 -5 -8
-10 -17 -10 -14 0 -15 -2 -4 -9 8 -5 26 -7 40 -5 14 3 34 5 44 5 9 0 15 4 13
8 -3 4 7 6 22 6 15 -1 35 5 45 13 11 10 17 11 17 4 0 -7 14 -4 36 8 20 12 32
15 28 8 -6 -10 -4 -11 7 0 7 6 21 12 32 12 10 0 15 4 12 10 -3 5 0 7 8 4 8 -3
18 -1 21 5 4 6 13 8 21 4 8 -3 15 -1 15 5 0 9 37 25 53 23 4 -1 7 3 7 9 0 5 7
10 16 10 8 0 12 4 9 10 -3 6 1 7 10 4 8 -4 21 -1 29 5 7 6 16 7 20 3 4 -4 6 0
4 8 -2 8 3 14 10 12 6 -1 12 2 12 8 0 6 3 9 8 9 19 -3 33 2 27 11 -3 6 1 10 9
10 9 0 16 5 16 11 0 5 5 7 10 4 6 -3 10 -1 10 4 0 6 6 10 13 9 6 -2 11 3 9 10
-1 8 2 11 8 7 5 -3 10 -1 10 4 0 6 3 10 8 9 8 -3 27 11 78 59 19 18 34 30 34
28 0 -3 10 5 23 18 12 12 21 25 19 30 -1 4 4 7 12 7 8 0 18 9 21 21 4 11 9 18
12 15 7 -6 48 44 48 59 1 5 6 9 13 7 7 -1 12 5 12 13 0 8 4 15 8 15 5 0 15 11
22 25 7 13 17 22 22 19 5 -3 8 -2 7 3 -5 16 24 62 35 56 6 -3 8 -3 4 2 -4 4
-3 14 3 22 6 7 8 13 3 13 -4 0 1 7 12 16 10 8 12 12 4 8 -11 -6 -10 -2 3 13 9
11 17 25 17 31 0 7 4 12 10 12 5 0 9 3 9 8 -3 19 2 33 10 28 5 -3 9 0 8 7 -1
34 4 48 15 41 8 -5 9 -2 5 9 -3 9 -2 19 4 23 6 3 8 12 5 20 -3 7 1 19 8 26 7
8 12 21 10 31 -1 9 1 17 4 17 4 0 8 10 8 23 3 34 8 51 19 59 6 5 4 8 -5 8 -12
0 -12 2 -2 9 7 4 14 22 14 39 1 17 4 30 7 28 3 -2 7 28 8 67 3 88 4 98 15 91
5 -3 6 -9 3 -14 -3 -4 1 -11 7 -13 10 -4 9 -8 -2 -16 -10 -7 -11 -11 -2 -11 6
0 12 -9 12 -20 0 -11 6 -20 13 -20 9 0 8 -3 -2 -9 -10 -6 -10 -10 -1 -16 6 -4
9 -14 5 -23 -3 -8 0 -19 7 -24 10 -6 10 -8 -1 -8 -11 0 -11 -3 -1 -15 7 -8 14
-39 15 -67 2 -29 4 -53 5 -53 1 0 3 -16 4 -35 1 -20 5 -41 9 -47 4 -6 3 -15
-3 -18 -7 -4 -7 -11 -2 -18 5 -7 7 -70 5 -142 -4 -161 -3 -157 -17 -174 -8
-11 -8 -13 0 -8 8 4 11 -2 10 -18 0 -14 -5 -25 -10 -25 -5 0 -4 -6 1 -12 11
-16 -9 -82 -21 -71 -5 5 -3 -2 3 -14 8 -16 8 -23 1 -23 -6 0 -8 -12 -6 -27 3
-15 1 -32 -4 -38 -5 -6 -11 -26 -12 -44 -1 -18 -6 -35 -11 -38 -5 -3 -4 -9 3
-13 8 -5 7 -12 -6 -25 -18 -17 -28 -59 -12 -49 4 3 5 -2 2 -10 -3 -9 -9 -14
-13 -12 -3 2 -7 -11 -9 -30 -1 -19 -9 -46 -18 -59 -9 -14 -13 -25 -9 -25 4 0
2 -6 -4 -13 -6 -8 -8 -17 -4 -20 3 -4 0 -7 -7 -7 -7 0 -10 -3 -7 -7 4 -3 0
-17 -8 -30 -9 -13 -13 -23 -9 -23 4 0 1 -7 -6 -15 -7 -8 -9 -15 -5 -15 4 0 2
-7 -5 -15 -6 -8 -8 -20 -4 -26 4 -8 3 -9 -4 -5 -7 4 -12 1 -12 -8 0 -9 -4 -16
-9 -16 -6 0 -8 -9 -6 -20 2 -11 0 -20 -6 -20 -5 0 -9 -7 -9 -15 0 -8 -4 -15
-10 -15 -5 0 -10 -9 -10 -20 0 -11 -4 -20 -10 -20 -5 0 -10 -5 -10 -10 0 -6
-12 -29 -26 -51 -14 -23 -20 -38 -12 -33 10 6 10 5 -1 -9 -7 -9 -18 -14 -24
-10 -6 4 -8 0 -4 -10 3 -10 3 -17 -2 -17 -5 0 -11 -9 -14 -21 -4 -13 -10 -18
-18 -13 -7 4 -10 3 -6 -3 4 -6 0 -16 -8 -23 -8 -7 -15 -21 -15 -32 0 -10 -4
-17 -8 -14 -5 3 -15 -7 -23 -22 -8 -15 -20 -31 -27 -35 -7 -5 -10 -12 -7 -18
4 -5 -1 -9 -10 -9 -9 0 -13 -5 -10 -10 3 -6 -1 -13 -9 -16 -9 -3 -16 -12 -16
-20 0 -8 -4 -14 -10 -14 -5 0 -22 -18 -36 -40 -15 -22 -33 -40 -41 -40 -8 0
-12 -3 -10 -7 7 -11 -19 -33 -28 -25 -4 4 -6 3 -5 -3 4 -19 0 -38 -6 -32 -8 7
-38 -21 -40 -38 -1 -6 5 -12 12 -12 8 0 14 5 14 10 0 6 3 7 7 4 3 -4 13 2 20
13 8 11 18 18 23 15 4 -3 10 1 13 9 3 7 26 27 51 43 25 17 43 33 39 37 -3 3
-1 6 5 6 6 0 33 20 59 45 25 25 50 45 55 45 4 0 7 5 6 12 -2 7 4 12 12 13 8 1
14 6 12 13 -1 7 2 12 8 12 5 0 19 9 30 20 11 11 18 20 15 20 -3 0 11 16 31 35
19 19 32 35 27 35 -4 0 4 8 20 18 15 10 24 22 20 25 -3 4 -1 7 6 7 7 0 10 4 6
9 -3 5 4 12 15 16 11 4 18 10 16 14 -3 4 6 20 20 36 14 16 34 44 45 62 12 18
25 31 30 28 5 -4 6 1 3 9 -3 9 -1 16 6 16 6 0 8 5 5 10 -3 6 1 13 9 16 9 3 13
10 10 15 -3 5 0 9 6 9 6 0 8 5 5 10 -3 6 1 13 9 16 9 3 13 10 10 15 -3 5 2 12
10 15 9 3 13 11 9 17 -3 5 2 16 12 24 11 7 16 13 12 13 -4 0 -1 13 8 30 8 16
15 33 14 36 0 4 4 10 9 13 6 3 12 13 14 21 2 8 8 20 15 28 7 7 9 20 6 29 -4
11 -3 14 5 9 7 -4 12 -1 13 6 2 33 10 63 21 69 6 4 8 11 4 17 -3 6 0 16 7 24
13 13 27 54 30 91 1 9 5 17 9 17 4 0 8 5 8 11 0 5 -6 7 -12 3 -7 -4 -3 4 9 17
18 20 20 28 11 37 -7 7 -8 12 -2 12 11 0 13 8 17 55 1 14 5 25 9 25 3 0 4 9 1
20 -3 11 -1 20 4 20 6 0 9 16 8 36 -1 19 2 37 6 40 5 2 6 11 2 19 -3 9 1 15 8
15 9 0 10 3 4 8 -13 9 -15 42 -3 42 6 0 6 6 -1 14 -9 10 -9 16 -1 21 8 5 8 11
-1 21 -9 11 -8 15 5 20 11 4 13 11 7 23 -6 10 -6 23 -1 31 5 8 4 22 -2 33 -7
13 -7 17 0 13 6 -4 10 2 9 14 -1 11 -6 20 -12 20 -6 0 -7 3 0 8 12 8 14 112 3
112 -5 0 -8 5 -8 11 0 5 5 7 11 3 7 -4 6 3 -2 17 -7 13 -12 29 -10 34 8 25 8
41 -1 51 -5 7 -8 16 -7 20 5 29 -2 64 -12 58 -8 -5 -8 -1 0 13 6 12 6 24 1 29
-5 5 -10 25 -11 44 -2 19 -5 40 -8 45 -6 11 -12 33 -13 53 -1 6 -4 12 -8 12
-3 0 -6 8 -7 18 -2 26 -8 45 -21 68 -6 12 -9 24 -5 27 3 3 -4 22 -16 42 -11
20 -16 33 -11 30 6 -4 5 4 -2 19 -6 14 -15 26 -19 26 -4 0 -6 8 -5 17 2 10 -3
24 -11 31 -7 8 -11 18 -8 23 4 5 1 9 -4 9 -6 0 -10 3 -9 8 3 8 -33 85 -43 92
-3 3 -9 14 -13 25 -3 11 -21 44 -41 73 -19 29 -29 50 -22 46 7 -4 2 3 -10 15
-13 12 -23 26 -23 31 0 5 -10 19 -22 31 -13 12 -16 18 -8 14 8 -4 6 1 -5 12
-11 11 -24 18 -29 15 -5 -3 -6 0 -2 7 5 7 -3 23 -18 38 -14 14 -23 30 -19 36
3 5 2 7 -4 4 -5 -4 -16 5 -23 18 -7 14 -17 25 -22 25 -4 0 -8 7 -8 15 0 8 -7
15 -16 15 -8 0 -13 4 -9 9 3 5 -4 12 -14 16 -14 4 -18 12 -14 23 3 9 3 14 -2
10 -4 -4 -14 -3 -22 3 -7 6 -13 8 -13 3z"/>
<path d="M3242 3661 c-11 -7 6 -24 27 -29 8 -1 10 2 5 10 -6 10 -4 10 7 2 8
-6 25 -11 38 -12 13 0 28 -7 32 -14 5 -7 9 -8 9 -3 0 6 5 3 10 -5 11 -17 14
-57 4 -47 -4 4 -15 -3 -25 -15 -11 -11 -19 -17 -19 -12 0 5 -10 -2 -21 -16
-11 -14 -17 -19 -13 -11 5 10 3 12 -5 7 -7 -5 -10 -14 -7 -22 3 -7 1 -16 -4
-19 -6 -4 -10 1 -10 10 0 9 -5 13 -11 9 -6 -3 -3 8 5 25 9 17 16 34 15 37 0 4
5 10 13 15 10 6 8 13 -10 29 -12 12 -27 18 -32 15 -6 -3 -10 -1 -10 5 0 7 -6
8 -18 1 -11 -6 -24 -6 -32 -1 -9 5 -19 5 -27 -2 -9 -8 -13 -7 -13 2 0 9 -7 7
-20 -5 -11 -10 -20 -15 -20 -12 0 12 -36 -27 -36 -39 -1 -6 5 -11 13 -11 7 0
13 4 13 9 0 5 5 6 10 3 6 -3 10 -1 10 6 0 8 4 8 16 -1 12 -11 15 -11 12 0 -4
18 40 20 55 1 10 -12 9 -14 -5 -8 -13 4 -15 2 -11 -10 4 -11 2 -14 -5 -9 -8 5
-12 0 -12 -13 0 -12 5 -21 12 -21 6 0 8 -3 5 -7 -4 -3 -1 -13 6 -21 10 -13 9
-14 -3 -7 -12 7 -13 6 -3 -7 7 -8 10 -18 6 -21 -3 -4 -2 -7 4 -7 6 0 10 -10
10 -22 1 -41 3 -48 16 -48 7 0 13 -9 13 -19 0 -11 -5 -17 -10 -14 -5 4 -7 -1
-3 -10 3 -9 2 -19 -3 -22 -5 -3 -7 -12 -4 -19 10 -25 -26 -27 -51 -2 -21 21
-26 22 -42 10 -17 -13 -17 -14 3 -20 12 -3 27 -16 34 -30 7 -13 16 -21 20 -19
4 3 18 -4 30 -15 12 -11 27 -17 31 -14 5 3 9 0 9 -5 0 -6 5 -11 11 -11 5 0 7
5 4 10 -3 6 -1 10 5 10 6 0 8 5 5 10 -3 6 0 10 7 10 9 0 9 3 2 8 -17 12 -23
39 -11 51 6 6 8 11 4 11 -4 0 -2 6 5 14 7 8 16 12 21 9 4 -2 7 3 7 12 0 9 5
13 10 10 6 -3 10 -2 10 2 0 5 9 9 20 10 11 1 18 -2 15 -8 -4 -5 3 -9 14 -9 12
0 21 -4 21 -10 0 -5 7 -10 16 -10 8 0 13 -4 9 -9 -3 -5 -1 -12 5 -16 6 -4 7
-11 4 -17 -4 -7 -2 -8 4 -4 11 6 16 -6 13 -26 0 -5 3 -8 9 -8 5 0 10 -12 10
-26 0 -14 4 -23 8 -20 4 3 7 -9 6 -25 -2 -23 1 -27 10 -20 7 6 15 9 18 6 2 -3
11 6 18 20 7 14 17 25 22 25 5 0 6 6 1 13 -4 6 -8 17 -9 23 -1 6 -13 23 -28
39 -14 15 -23 31 -20 36 3 5 -1 9 -9 9 -7 0 -20 11 -27 25 -7 13 -22 27 -33
31 -16 5 -17 8 -6 15 11 7 9 9 -7 9 -12 0 -27 7 -34 15 -7 8 -16 12 -21 9 -5
-3 -9 2 -9 11 0 10 -5 14 -12 9 -7 -4 2 6 19 23 18 16 30 33 26 36 -6 7 20 11
46 8 7 -2 10 2 6 8 -3 6 0 9 8 5 8 -3 18 -1 22 5 3 6 1 11 -4 11 -6 0 -11 9
-11 19 0 11 -4 21 -9 23 -5 2 -11 10 -13 17 -4 18 -63 61 -83 61 -8 0 -15 3
-15 8 0 9 -75 12 -88 3z"/>
<path d="M2681 3501 c-7 -5 -22 -6 -32 -4 -10 3 -19 1 -19 -4 0 -5 -10 -9 -21
-10 -12 -1 -31 -10 -42 -20 -14 -12 -18 -13 -12 -3 8 13 7 13 -10 0 -46 -36
-54 -44 -49 -52 3 -4 1 -8 -4 -8 -6 0 -8 -9 -5 -20 3 -11 9 -17 14 -14 5 3 9
1 9 -4 0 -5 17 -10 38 -10 63 0 68 -1 89 -21 12 -11 24 -17 27 -14 3 4 6 -1 6
-11 0 -9 4 -15 9 -12 5 3 11 -8 13 -25 5 -34 -13 -49 -35 -31 -14 12 -35 11
-54 -1 -8 -5 -13 -3 -14 5 0 7 -4 3 -10 -10 -5 -13 -13 -21 -18 -18 -5 3 -11
-1 -15 -9 -3 -8 -13 -15 -21 -15 -9 0 -13 -4 -10 -10 3 -5 2 -10 -3 -10 -17 0
-22 29 -7 44 8 7 11 16 8 20 -4 3 -1 6 5 6 7 0 12 5 12 10 0 16 -18 12 -39 -9
-11 -11 -23 -16 -27 -13 -4 4 -4 1 1 -7 4 -7 3 -16 -4 -21 -11 -6 -15 -61 -10
-112 2 -9 13 -21 26 -27 15 -7 22 -7 18 -1 -3 5 -1 10 5 10 15 0 34 20 43 43
4 10 11 16 16 12 5 -3 12 4 16 15 4 11 11 18 16 14 6 -3 17 0 26 8 12 9 15 9
9 0 -8 -13 19 -13 41 1 15 9 20 -1 18 -38 -1 -16 3 -38 8 -49 6 -13 6 -16 -2
-12 -6 4 -11 2 -11 -3 0 -6 4 -11 9 -11 6 0 8 -9 6 -20 -2 -11 0 -20 4 -20 12
0 9 -34 -3 -43 -8 -6 -8 -10 0 -13 7 -3 10 -14 7 -25 -3 -10 1 -27 8 -36 12
-14 12 -16 0 -8 -7 4 -3 -6 10 -24 16 -22 25 -27 31 -19 6 10 8 10 8 0 0 -10
4 -10 19 0 11 7 17 16 15 20 -3 4 1 8 9 8 8 0 17 11 19 25 3 13 2 22 -3 20 -4
-3 -10 -1 -14 5 -3 5 -1 10 6 10 7 0 4 6 -6 14 -15 11 -19 27 -19 86 -1 50 3
75 12 78 6 2 12 10 12 18 0 9 5 12 10 9 6 -3 10 -2 10 2 0 5 9 9 20 10 11 1
20 -2 20 -6 0 -5 8 -11 18 -13 10 -3 25 -20 35 -39 9 -19 18 -33 21 -31 20 8
42 40 40 55 -2 9 1 17 5 17 12 0 8 33 -4 42 -6 5 -5 8 3 8 10 0 9 4 -2 16 -9
8 -14 20 -11 25 4 5 1 9 -5 9 -6 0 -9 4 -5 9 3 5 1 12 -5 16 -5 3 -10 15 -10
26 0 11 -4 18 -9 15 -5 -4 -11 -1 -13 6 -2 6 -10 8 -17 4 -8 -6 -9 -11 -2 -20
6 -7 7 -17 3 -21 -4 -5 -1 -5 6 -1 8 5 12 -2 12 -26 0 -27 -4 -34 -20 -34 -11
0 -20 4 -20 9 0 5 -9 5 -20 2 -14 -4 -20 -2 -18 6 2 7 -8 18 -22 26 -14 7 -22
13 -18 13 4 0 -5 13 -20 29 -15 15 -42 47 -60 69 -19 23 -39 40 -45 39 -7 -1
-11 4 -9 11 1 8 -2 11 -7 8 -5 -4 -13 -2 -16 4 -5 8 -12 7 -23 -2 -13 -11 -14
-11 -7 1 6 11 4 13 -8 8 -11 -4 -14 -2 -11 8 4 11 29 26 41 26 2 0 16 4 33 9
20 6 30 5 30 -2 0 -6 6 -6 15 2 12 10 15 10 15 -1 0 -11 2 -11 9 1 13 19 5 30
-19 25 -11 -2 -20 0 -20 6 0 11 -11 11 -29 0z"/>
</g>
</svg>
